<?xml version="1.0" standalone="no"?>
<!DOCTYPE svg PUBLIC "-//W3C//DTD SVG 20010904//EN"
 "http://www.w3.org/TR/2001/REC-SVG-20010904/DTD/svg10.dtd">
<svg version="1.0" xmlns="http://www.w3.org/2000/svg"
 width="474.000000pt" height="474.000000pt" viewBox="0 0 474.000000 474.000000"
 preserveAspectRatio="xMidYMid meet">

<g transform="translate(0.000000,474.000000) scale(0.100000,-0.100000)"
fill="#000000" stroke="none">
<path d="M1190 2922 c0 -4 9 -15 20 -25 19 -16 20 -29 20 -342 0 -313 -1 -326
-20 -342 -11 -10 -20 -21 -20 -25 0 -5 130 -8 289 -8 159 0 296 -3 305 -6 9
-3 16 -12 16 -20 0 -8 5 -14 10 -14 6 0 10 29 11 65 1 36 2 83 3 106 1 47 -8
59 -24 29 -10 -19 -20 -20 -210 -20 l-200 0 0 285 c0 275 1 285 20 295 11 6
18 15 15 21 -7 11 -235 12 -235 1z"/>
<path d="M2010 2920 c0 -5 9 -14 20 -20 19 -10 20 -21 20 -342 0 -327 0 -332
-22 -355 l-21 -23 301 0 c291 0 302 -1 314 -20 7 -11 16 -20 20 -20 5 0 8 50
8 110 0 102 -10 138 -25 90 -6 -19 -15 -20 -211 -20 l-205 0 3 286 c3 260 5
286 21 295 38 22 13 29 -103 29 -70 0 -120 -4 -120 -10z"/>
<path d="M2840 2916 c0 -9 6 -16 14 -16 7 0 16 -10 20 -22 3 -13 6 -164 6
-336 0 -300 -1 -313 -20 -329 -11 -10 -20 -21 -20 -25 0 -5 52 -8 115 -8 113
0 130 5 100 30 -12 10 -15 40 -15 146 l0 134 158 0 c184 0 248 14 298 64 78
78 71 247 -15 319 -54 45 -88 50 -373 54 -240 4 -268 3 -268 -11z m521 -145
c32 -26 33 -92 1 -123 -21 -21 -33 -23 -172 -26 l-150 -4 0 86 0 86 149 0
c131 0 152 -2 172 -19z"/>
<path d="M1220 1991 l0 -71 35 0 c19 0 35 5 35 10 0 6 -11 10 -25 10 -24 0
-25 3 -25 54 0 30 -4 58 -10 61 -6 4 -10 -20 -10 -64z"/>
<path d="M1460 2000 c0 -54 3 -62 24 -71 17 -8 29 -8 45 0 18 10 21 21 21 71
0 77 -18 78 -22 3 -3 -50 -6 -58 -23 -58 -17 0 -20 8 -23 58 -4 76 -22 74 -22
-3z"/>
<path d="M1580 1990 c0 -40 4 -70 10 -70 6 0 10 9 10 20 0 13 7 20 19 20 11 0
23 -9 26 -20 3 -11 13 -20 22 -20 13 0 13 3 3 15 -12 14 -11 30 5 67 10 24
-28 58 -65 58 l-30 0 0 -70z m65 20 c0 -18 -6 -26 -22 -28 -20 -3 -23 1 -23
28 0 27 3 31 23 28 16 -2 22 -10 22 -28z"/>
<path d="M1707 2053 c-11 -10 -8 -121 3 -128 6 -4 10 20 10 64 0 71 -1 77 -13
64z"/>
<path d="M1755 2051 c-3 -5 3 -11 12 -13 14 -3 18 -14 19 -58 2 -78 24 -79 24
-1 0 48 3 61 15 61 8 0 15 5 15 10 0 13 -77 13 -85 1z"/>
<path d="M2100 1990 l0 -70 40 0 c22 0 40 5 40 10 0 6 -13 10 -30 10 l-30 0 0
60 c0 33 -4 60 -10 60 -6 0 -10 -30 -10 -70z"/>
<path d="M2440 1990 c0 -40 4 -70 10 -70 6 0 10 8 10 18 0 12 11 21 33 27 25
8 33 16 35 40 4 34 -18 55 -60 55 l-28 0 0 -70z m65 20 c0 -18 -6 -26 -22 -28
-20 -3 -23 1 -23 28 0 27 3 31 23 28 16 -2 22 -10 22 -28z"/>
<path d="M2560 1990 l0 -70 40 0 c22 0 40 5 40 10 0 6 -13 10 -30 10 -20 0
-30 5 -30 15 0 9 9 15 24 15 14 0 28 5 31 10 4 6 -7 10 -24 10 -26 0 -31 4
-31 25 0 21 5 25 30 25 17 0 30 5 30 10 0 6 -18 10 -40 10 l-40 0 0 -70z"/>
<path d="M2670 1990 l0 -70 40 0 c22 0 40 5 40 10 0 6 -13 10 -30 10 l-30 0 0
60 c0 33 -4 60 -10 60 -6 0 -10 -30 -10 -70z"/>
<path d="M2781 2005 c-1 -63 9 -85 39 -85 30 0 50 34 50 83 0 25 -4 49 -10 52
-6 4 -10 -13 -10 -43 0 -32 -5 -54 -15 -62 -23 -20 -38 1 -46 63 l-6 52 -2
-60z"/>
<path d="M2932 2048 c-44 -21 -41 -101 4 -118 14 -6 40 -10 57 -10 32 0 33 1
35 49 2 43 -2 52 -24 70 -30 23 -39 24 -72 9z m63 -28 c36 -40 -7 -96 -55 -70
-25 14 -27 65 -2 79 25 15 37 13 57 -9z"/>
<path d="M3060 2006 c0 -73 25 -100 71 -76 16 9 19 22 19 72 0 74 -17 68 -22
-7 -3 -42 -6 -50 -23 -50 -17 0 -20 8 -23 58 -4 72 -22 75 -22 3z"/>
<path d="M3180 1990 l0 -70 40 0 c22 0 40 5 40 10 0 6 -13 10 -30 10 -20 0
-30 5 -30 15 0 9 9 15 25 15 14 0 25 5 25 10 0 6 -11 10 -25 10 -20 0 -25 5
-25 25 0 21 5 25 30 25 17 0 30 5 30 10 0 6 -18 10 -40 10 l-40 0 0 -70z"/>
<path d="M3290 1990 c0 -40 4 -70 10 -70 6 0 10 9 10 20 0 13 7 20 19 20 11 0
23 -9 26 -20 10 -31 22 -24 21 13 0 17 4 40 8 49 11 24 -27 58 -64 58 l-30 0
0 -70z m65 20 c0 -18 -6 -26 -22 -28 -20 -3 -23 1 -23 28 0 27 3 31 23 28 16
-2 22 -10 22 -28z"/>
<path d="M1351 1998 c-13 -29 -25 -57 -27 -63 -3 -6 18 -10 51 -10 33 0 54 4
51 10 -2 6 -12 30 -21 55 -10 25 -21 49 -25 53 -4 4 -17 -16 -29 -45z m39 -29
c0 -10 -7 -19 -15 -19 -16 0 -19 9 -9 34 8 20 24 11 24 -15z"/>
<path d="M1912 2030 c-5 -14 -17 -42 -26 -64 -9 -21 -16 -39 -16 -40 0 0 25
-1 55 -1 30 0 55 2 55 5 -1 3 -14 32 -29 65 -27 58 -29 59 -39 35z m28 -61 c0
-10 -7 -19 -15 -19 -15 0 -21 31 -9 43 11 10 24 -3 24 -24z"/>
<path d="M2235 1998 c-10 -29 -20 -57 -22 -63 -2 -6 19 -10 50 -10 l53 -1 -25
63 c-14 34 -28 63 -32 63 -3 0 -13 -24 -24 -52z m35 -7 c0 -5 3 -16 6 -25 4
-12 0 -16 -16 -16 -16 0 -20 4 -16 16 3 9 6 20 6 25 0 5 5 9 10 9 6 0 10 -4
10 -9z"/>
<path d="M3442 1992 c-12 -32 -22 -60 -22 -62 0 -3 23 -5 50 -5 28 0 50 2 50
5 0 11 -45 120 -50 120 -3 0 -15 -26 -28 -58z m38 -1 c0 -5 3 -16 6 -25 4 -12
0 -16 -16 -16 -16 0 -20 4 -16 16 3 9 6 20 6 25 0 5 5 9 10 9 6 0 10 -4 10 -9z"/>
<path d="M1640 1420 l0 -80 60 0 c33 0 60 4 60 10 0 6 -22 10 -50 10 -47 0
-50 2 -50 25 0 23 4 25 40 25 22 0 40 5 40 10 0 6 -18 10 -40 10 -36 0 -40 3
-40 25 0 23 4 25 45 25 25 0 45 5 45 10 0 6 -25 10 -55 10 l-55 0 0 -80z"/>
<path d="M1836 1479 c-21 -31 -6 -55 45 -70 27 -9 39 -17 37 -28 -3 -12 -15
-16 -51 -14 -26 1 -47 -2 -47 -7 0 -23 91 -28 110 -6 23 29 8 58 -38 74 -56
18 -55 47 1 47 47 0 43 19 -5 23 -28 2 -40 -2 -52 -19z"/>
<path d="M2000 1490 c0 -5 11 -10 25 -10 24 0 25 -2 25 -71 0 -51 3 -70 12
-67 8 3 11 21 9 51 -4 65 5 87 35 87 13 0 24 5 24 10 0 6 -28 10 -65 10 -37 0
-65 -4 -65 -10z"/>
<path d="M2200 1420 c0 -47 4 -80 10 -80 6 0 10 33 10 80 0 47 -4 80 -10 80
-6 0 -10 -33 -10 -80z"/>
<path d="M2310 1420 l0 -80 55 0 c30 0 55 5 55 10 0 6 -20 10 -45 10 l-45 0 0
70 c0 40 -4 70 -10 70 -6 0 -10 -33 -10 -80z"/>
<path d="M2490 1420 c0 -95 17 -108 22 -16 3 73 0 96 -13 96 -5 0 -9 -36 -9
-80z"/>
<path d="M2616 1487 c-32 -23 -17 -60 32 -77 57 -20 54 -45 -6 -44 -53 1 -51
-20 2 -24 46 -4 68 13 64 47 -2 21 -12 29 -46 40 -54 17 -55 45 -2 47 52 2 56
3 40 14 -21 14 -63 12 -84 -3z"/>
<path d="M2770 1490 c0 -5 11 -10 25 -10 24 0 25 -2 25 -70 0 -40 4 -70 10
-70 6 0 10 24 10 54 0 70 7 86 36 86 13 0 24 5 24 10 0 6 -28 10 -65 10 -37 0
-65 -4 -65 -10z"/>
<path d="M2974 1424 c-34 -73 -38 -113 -7 -66 12 16 25 22 53 22 28 0 41 -6
53 -22 8 -13 18 -20 21 -17 9 8 -62 159 -75 159 -6 0 -26 -34 -45 -76z m65 6
c10 -29 9 -30 -20 -30 -33 0 -33 0 -17 35 15 33 24 32 37 -5z"/>
<path d="M1643 1294 c9 -9 1446 -9 1454 0 3 3 -324 6 -727 6 -403 0 -730 -3
-727 -6z"/>
<path d="M2245 1210 c-21 -22 -43 -40 -47 -40 -4 0 -8 16 -8 35 0 19 -4 35
-10 35 -6 0 -10 -32 -10 -75 0 -43 4 -75 10 -75 6 0 10 8 10 19 0 10 7 24 16
32 13 11 21 7 51 -25 46 -48 56 -38 14 15 l-33 41 27 28 c15 16 26 33 23 40
-2 6 -21 -7 -43 -30z"/>
<path d="M1700 1165 c0 -85 17 -103 22 -22 l3 52 23 -42 c12 -24 27 -43 32
-43 5 0 20 19 34 43 l26 42 0 -52 c0 -40 4 -53 15 -53 12 0 15 15 15 75 0 91
-13 97 -55 25 -16 -27 -32 -50 -35 -50 -3 0 -17 23 -32 50 -16 28 -32 50 -38
50 -6 0 -10 -32 -10 -75z"/>
<path d="M1970 1165 c-33 -76 -36 -108 -5 -61 12 18 26 26 45 26 39 0 60 -9
60 -26 0 -8 7 -14 14 -14 13 0 13 5 -1 38 -30 73 -54 112 -67 112 -7 0 -28
-34 -46 -75z m67 16 c13 -34 9 -41 -24 -41 -26 0 -28 8 -11 45 15 32 21 32 35
-4z"/>
<path d="M2380 1165 l0 -75 55 0 c30 0 55 5 55 10 0 6 -20 10 -45 10 -41 0
-45 2 -45 25 0 23 4 25 40 25 22 0 40 5 40 10 0 6 -18 10 -40 10 -36 0 -40 3
-40 24 0 22 5 25 48 29 46 3 46 3 -10 5 l-58 2 0 -75z"/>
<path d="M2680 1183 c1 -34 7 -66 15 -76 19 -26 83 -27 101 -2 16 22 19 135 4
135 -5 0 -10 -24 -10 -53 0 -57 -12 -77 -45 -77 -33 0 -45 20 -45 77 0 29 -4
53 -10 53 -6 0 -10 -26 -10 -57z"/>
<path d="M2900 1165 c0 -60 3 -75 15 -75 8 0 15 8 15 19 0 13 10 20 36 24 46
8 64 23 64 56 0 39 -18 51 -77 51 l-53 0 0 -75z m102 42 c14 -22 8 -37 -18
-47 -46 -18 -54 -13 -54 31 0 41 0 41 32 35 18 -3 36 -12 40 -19z"/>
</g>
</svg>
